<?xml version="1.0" encoding="UTF-8" standalone="no"?>
<svg width="72px" height="80px" viewBox="0 0 72 80" version="1.1" xmlns="http://www.w3.org/2000/svg" xmlns:xlink="http://www.w3.org/1999/xlink" xmlns:sketch="http://www.bohemiancoding.com/sketch/ns">
    <!-- Generator: Sketch 3.3.3 (12072) - http://www.bohemiancoding.com/sketch -->
    <title>docker</title>
    <desc>Created with Sketch.</desc>
    <defs></defs>
    <g id="Page-1" stroke="none" stroke-width="1" fill="none" fill-rule="evenodd" sketch:type="MSPage">
        <g id="docker" sketch:type="MSArtboardGroup" fill="#FFFFFF">
            <path d="M7.2,0 C3.224,0 0,3.224 0,7.2 L0,72.8 C0,76.776 3.224,80 7.2,80 L64.8,80 C68.776,80 72,76.776 72,72.8 L72,7.2 C72,3.224 68.776,0 64.8,0 L7.2,0 Z M38.5248592,32.8612327 L43.5673953,32.8612327 L43.5673953,38.0159912 L46.1170678,38.0159912 C47.2944666,38.0159912 48.5055256,37.806234 49.6205644,37.4284113 C50.1684582,37.2426298 50.7834361,36.9840946 51.3238892,36.6589474 C50.6120643,35.7295673 50.2486521,34.5560611 50.1416481,33.3993259 C49.9963777,31.8260292 50.3137285,29.7781805 51.3785723,28.546802 L51.9086321,27.9337111 L52.540263,28.441451 C54.1305604,29.7191272 55.4679928,31.5044251 55.7037324,33.5396365 C57.6185851,32.9763865 59.866733,33.1096107 61.554586,34.0837531 L62.2470415,34.4833075 L61.8825664,35.1946629 C60.4551371,37.9805592 57.4709526,38.8435635 54.5533799,38.6908517 C50.1875913,49.5646816 40.6827741,54.712708 29.1582261,54.712708 C23.204266,54.712708 17.7416269,52.4869909 14.6309509,47.2044412 L14.5799291,47.1182234 L14.1267563,46.1961659 C13.0752585,43.870885 12.7260191,41.3235639 12.9629397,38.7783687 L13.0340395,38.0159912 L17.3459718,38.0159912 L17.3459718,32.8612327 L22.3883897,32.8612327 L22.3883897,27.8185573 L32.4736979,27.8185573 L32.4736979,22.776 L38.5248592,22.776 L38.5248592,32.8612327 Z" sketch:type="MSShapeGroup"></path>
        </g>
    </g>
</svg>