<?xml version="1.0" encoding="UTF-8" standalone="no"?>
<svg width="72px" height="80px" viewBox="0 0 72 80" version="1.1" xmlns="http://www.w3.org/2000/svg" xmlns:xlink="http://www.w3.org/1999/xlink" xmlns:sketch="http://www.bohemiancoding.com/sketch/ns">
    <!-- Generator: Sketch 3.3.3 (12072) - http://www.bohemiancoding.com/sketch -->
    <title>heroku</title>
    <desc>Created with Sketch.</desc>
    <defs></defs>
    <g id="Page-1" stroke="none" stroke-width="1" fill="none" fill-rule="evenodd" sketch:type="MSPage">
        <g id="heroku" sketch:type="MSArtboardGroup" fill="#FFFFFF">
            <path d="M63.8,0 L6.2,0 C2.224,0 -1,3.224 -1,7.2 L-1,72.8 C-1,76.776 2.224,80 6.2,80 L63.8,80 C67.776,80 71,76.776 71,72.8 L71,7.2 C71,3.224 67.776,0 63.8,0 L63.8,0 Z M17,68 L17,52 L26,60 L17,68 L17,68 Z M45,68 L45,44.11 C44.961,42.243 44.062,40 40,40 C31.866,40 22.742,44.091 22.651,44.132 L17,46.692 L17,12 L25,12 L25,34.711 C28.994,33.411 34.577,32 40,32 C44.945,32 47.905,33.944 49.517,35.575 C52.958,39.055 53.005,43.488 53,44 L53,68 L45,68 L45,68 Z M47,25 L39,25 C42.144,20.875 44.118,16.534 45,12 L53,12 C52.46,16.544 50.618,20.9 47,25 L47,25 Z" id="heoku" sketch:type="MSShapeGroup"></path>
        </g>
    </g>
</svg>